<?xml version="1.0" encoding="UTF-8"?>
<svg version="1.1" xmlns="http://www.w3.org/2000/svg" width="1475" height="297">
<path d="M0 0 C0.72236847 0.16721558 1.44473694 0.33443115 2.18899536 0.50671387 C4.09307759 0.96028265 5.98265326 1.47345478 7.87109375 1.98828125 C8.89380623 2.26378815 8.89380623 2.26378815 9.93717957 2.54486084 C11.37251435 2.93185822 12.80721113 3.32122941 14.24127197 3.71292114 C17.97648149 4.73264798 21.71670059 5.73362349 25.45703125 6.734375 C26.19145447 6.93116348 26.92587769 7.12795197 27.68255615 7.33070374 C36.74218492 9.74772541 45.86015499 11.90939177 55 14 C57.13379117 44.88069994 44.4798486 75.46042054 24.74609375 98.6484375 C22.53986888 101.14243083 20.28539501 103.57852193 18 106 C17.31550781 106.74894531 16.63101563 107.49789062 15.92578125 108.26953125 C8.27494698 116.3446262 -0.92026053 123.25839266 -11 128 C-41.00392086 108.78282905 -64.27978448 81.43368099 -72.56201172 46.10351562 C-73.45311181 41.82385099 -74.11560178 37.51163405 -74.75 33.1875 C-74.87785889 32.31601318 -75.00571777 31.44452637 -75.13745117 30.54663086 C-75.8886249 24.99027124 -76.05661895 19.6022733 -76 14 C-67.86984855 11.85100778 -59.7334431 9.72836461 -51.58805466 7.6379528 C-47.80495435 6.66621378 -44.02452392 5.68595458 -40.24902344 4.68505859 C-36.59729508 3.71732875 -32.94010508 2.77350677 -29.27817535 1.84515762 C-27.89037076 1.48905128 -26.504641 1.12474337 -25.12129974 0.75167465 C-16.07586695 -1.68045264 -9.09268754 -2.36839668 0 0 Z M-45.19921875 44.05078125 C-47.46516121 47.761815 -47.66833266 50.16673428 -47.625 54.5 C-47.63789062 55.7890625 -47.65078125 57.078125 -47.6640625 58.40625 C-47.23242513 62.07326587 -47.23242513 62.07326587 -45.03125 64.93359375 C-40.89245837 67.75501227 -37.77024778 67.7078645 -32.875 67.5625 C-31.65876953 67.57893555 -31.65876953 67.57893555 -30.41796875 67.59570312 C-27.16843999 67.59099827 -27.16843999 67.59099827 -24 67 C-23.01 65.68 -22.02 64.36 -21 63 C-27.6 63 -34.2 63 -41 63 C-41 57.39 -41 51.78 -41 46 C-39.66324219 46.04640625 -38.32648438 46.0928125 -36.94921875 46.140625 C-35.19533481 46.17814123 -33.44142675 46.21454155 -31.6875 46.25 C-30.80642578 46.28351563 -29.92535156 46.31703125 -29.01757812 46.3515625 C-28.17001953 46.36445313 -27.32246094 46.37734375 -26.44921875 46.390625 C-25.27879028 46.4220459 -25.27879028 46.4220459 -24.0847168 46.45410156 C-21.79588741 46.17160028 -21.79588741 46.17160028 -20.22192383 43.97558594 C-19.81868896 43.32364258 -19.4154541 42.67169922 -19 42 C-22.72875388 41.85439805 -26.45677434 41.76582957 -30.1875 41.6875 C-31.24259766 41.64560547 -32.29769531 41.60371094 -33.38476562 41.56054688 C-39.6375112 41.44990083 -39.6375112 41.44990083 -45.19921875 44.05078125 Z M-0.01025391 43.81640625 C-1.27967438 45.847479 -2.22847232 47.73676707 -3 50 C-1.80806482 52.64329156 -1.12063466 54.11102019 1 56 C4.56965276 56.91440128 8.07965765 56.88477455 11.75 56.875 C12.73355469 56.895625 13.71710938 56.91625 14.73046875 56.9375 C17.15449158 56.9845684 19.57561389 57.00444492 22 57 C22.5625 58.9375 22.5625 58.9375 23 61 C21.39308575 62.60691425 19.63462533 62.14671191 17.4140625 62.17578125 C16.01800781 62.21155273 16.01800781 62.21155273 14.59375 62.24804688 C12.62261265 62.2908413 10.65119181 62.32218642 8.6796875 62.34179688 C7.74640625 62.36951172 6.813125 62.39722656 5.8515625 62.42578125 C4.99385254 62.44036377 4.13614258 62.45494629 3.25244141 62.4699707 C0.81448448 62.81512515 0.81448448 62.81512515 -0.80322266 65.03588867 C-1.19815918 65.68404541 -1.5930957 66.33220215 -2 67 C2.56201698 67.17437877 7.12317706 67.28089025 11.6875 67.375 C13.62786133 67.45041016 13.62786133 67.45041016 15.60742188 67.52734375 C22.09894056 67.86433465 22.09894056 67.86433465 28.01025391 65.71240234 C29.88476202 63.54167567 31 61.78784685 31 58.875 C29.81564419 56.65433285 28.69845899 54.87189738 27 53 C24.69600915 52.36138512 24.69600915 52.36138512 22.11328125 52.390625 C21.17548828 52.35839844 20.23769531 52.32617188 19.27148438 52.29296875 C18.29501953 52.27878906 17.31855469 52.26460937 16.3125 52.25 C15.32443359 52.22035156 14.33636719 52.19070312 13.31835938 52.16015625 C10.87882404 52.08944508 8.44024475 52.03675735 6 52 C5.4375 50.0625 5.4375 50.0625 5 48 C6.60691425 46.39308575 8.36537467 46.85328809 10.5859375 46.82421875 C11.51664063 46.80037109 12.44734375 46.77652344 13.40625 46.75195312 C15.37738735 46.7091587 17.34880819 46.67781358 19.3203125 46.65820312 C20.25359375 46.63048828 21.186875 46.60277344 22.1484375 46.57421875 C23.00614746 46.55963623 23.86385742 46.54505371 24.74755859 46.5300293 C27.18551552 46.18487485 27.18551552 46.18487485 28.80322266 43.96411133 C29.39562744 42.99187622 29.39562744 42.99187622 30 42 C25.43835918 41.76751414 20.87823781 41.62551857 16.3125 41.5 C15.01892578 41.43296875 13.72535156 41.3659375 12.39257812 41.296875 C5.66887213 40.88061669 5.66887213 40.88061669 -0.01025391 43.81640625 Z " fill="#3FA4D0" transform="translate(158,104)"/>
<path d="M0 0 C1.42220015 0.87520009 2.82354063 1.78654615 4.1875 2.75 C5.54875 3.61625 5.54875 3.61625 6.9375 4.5 C14.04691415 11.60941415 17.18791435 19.05403955 17.5625 29.0625 C17.36098763 38.83584984 14.16555572 45.68308822 7.48046875 52.76953125 C1.10701421 58.27437188 -6.22269001 60.73882505 -14.5 61.3125 C-15.67949219 61.39628906 -16.85898438 61.48007812 -18.07421875 61.56640625 C-18.97785156 61.62699219 -19.88148438 61.68757813 -20.8125 61.75 C-21.28300781 62.96558594 -21.75351563 64.18117188 -22.23828125 65.43359375 C-22.86660163 67.01846156 -23.49553996 68.60308448 -24.125 70.1875 C-24.43373047 70.98994141 -24.74246094 71.79238281 -25.06054688 72.61914062 C-25.36669922 73.38291016 -25.67285156 74.14667969 -25.98828125 74.93359375 C-26.26583252 75.64056396 -26.54338379 76.34753418 -26.8293457 77.07592773 C-27.8125 78.75 -27.8125 78.75 -30.8125 79.75 C-33.31640625 78.859375 -33.31640625 78.859375 -36.375 77.5 C-41.89879687 75.27934706 -47.19130572 73.90370008 -53.0625 72.9375 C-53.79412354 72.81407227 -54.52574707 72.69064453 -55.27954102 72.56347656 C-78.28985241 69.03814075 -100.28127977 76.25028684 -118.8125 89.75 C-133.2951902 101.01877836 -143.65263183 117.8499612 -147.8125 135.75 C-148.00328125 136.4821875 -148.1940625 137.214375 -148.390625 137.96875 C-149.84162921 143.85568138 -150.35374329 149.70970333 -150.8125 155.75 C-155.1025 156.08 -159.3925 156.41 -163.8125 156.75 C-161.92497722 127.67651476 -152.94904929 103.70793936 -131.6328125 83.16015625 C-112.45001819 66.76710349 -87.23809142 56.93652987 -61.8125 58.75 C-52.57618304 59.60008502 -43.68609668 60.93000106 -34.8125 63.75 C-34.1466386 60.72395661 -33.69169564 57.85414688 -33.8125 54.75 C-35.89459475 52.0004197 -35.89459475 52.0004197 -38.8125 49.75 C-44.18431969 43.87847615 -46.63716688 36.84167382 -46.91015625 28.9140625 C-46.32571204 18.73618043 -42.41199113 10.56382945 -34.8125 3.75 C-25.28716397 -3.95238379 -11.10292779 -5.33538895 0 0 Z " fill="#6C7386" transform="translate(213.8125,2.25)"/>
<path d="M0 0 C26.54851343 6.37164322 26.54851343 6.37164322 39.25390625 9.765625 C47.79236926 12.0163267 56.40170111 13.99274061 65 16 C67.13379117 46.88069994 54.4798486 77.46042054 34.74609375 100.6484375 C32.53986888 103.14243083 30.28539501 105.57852193 28 108 C27.31550781 108.74894531 26.63101563 109.49789062 25.92578125 110.26953125 C21.56021971 114.87717569 16.888873 118.7415288 11.75 122.4375 C11.15936768 122.86289063 10.56873535 123.28828125 9.96020508 123.7265625 C6.6523543 126.04004591 3.80809519 127.47676192 0 129 C0 86.43 0 43.86 0 0 Z M9.98974609 45.81640625 C8.72032562 47.847479 7.77152768 49.73676707 7 52 C8.19193518 54.64329156 8.87936534 56.11102019 11 58 C14.56965276 58.91440128 18.07965765 58.88477455 21.75 58.875 C22.73355469 58.895625 23.71710938 58.91625 24.73046875 58.9375 C27.15449158 58.9845684 29.57561389 59.00444492 32 59 C32.5625 60.9375 32.5625 60.9375 33 63 C31.39308575 64.60691425 29.63462533 64.14671191 27.4140625 64.17578125 C26.01800781 64.21155273 26.01800781 64.21155273 24.59375 64.24804688 C22.62261265 64.2908413 20.65119181 64.32218642 18.6796875 64.34179688 C17.74640625 64.36951172 16.813125 64.39722656 15.8515625 64.42578125 C14.99385254 64.44036377 14.13614258 64.45494629 13.25244141 64.4699707 C10.81448448 64.81512515 10.81448448 64.81512515 9.19677734 67.03588867 C8.80184082 67.68404541 8.4069043 68.33220215 8 69 C12.56201698 69.17437877 17.12317706 69.28089025 21.6875 69.375 C23.62786133 69.45041016 23.62786133 69.45041016 25.60742188 69.52734375 C32.09894056 69.86433465 32.09894056 69.86433465 38.01025391 67.71240234 C39.88476202 65.54167567 41 63.78784685 41 60.875 C39.81564419 58.65433285 38.69845899 56.87189738 37 55 C34.69600915 54.36138512 34.69600915 54.36138512 32.11328125 54.390625 C31.17548828 54.35839844 30.23769531 54.32617188 29.27148438 54.29296875 C28.29501953 54.27878906 27.31855469 54.26460937 26.3125 54.25 C25.32443359 54.22035156 24.33636719 54.19070312 23.31835938 54.16015625 C20.87882404 54.08944508 18.44024475 54.03675735 16 54 C15.4375 52.0625 15.4375 52.0625 15 50 C16.60691425 48.39308575 18.36537467 48.85328809 20.5859375 48.82421875 C21.51664063 48.80037109 22.44734375 48.77652344 23.40625 48.75195312 C25.37738735 48.7091587 27.34880819 48.67781358 29.3203125 48.65820312 C30.25359375 48.63048828 31.186875 48.60277344 32.1484375 48.57421875 C33.00614746 48.55963623 33.86385742 48.54505371 34.74755859 48.5300293 C37.18551552 48.18487485 37.18551552 48.18487485 38.80322266 45.96411133 C39.39562744 44.99187622 39.39562744 44.99187622 40 44 C35.43835918 43.76751414 30.87823781 43.62551857 26.3125 43.5 C25.01892578 43.43296875 23.72535156 43.3659375 22.39257812 43.296875 C15.66887213 42.88061669 15.66887213 42.88061669 9.98974609 45.81640625 Z " fill="#7C636D" transform="translate(148,102)"/>
<path d="M0 0 C4.78526672 1.3316144 8.08386356 3.27851408 12 6.3125 C12.5261792 6.71911865 13.0523584 7.1257373 13.59448242 7.54467773 C15.06895897 8.68879832 16.53480761 9.84401373 18 11 C18.61488281 11.46921875 19.22976562 11.9384375 19.86328125 12.421875 C38.17725956 26.8361113 47.76925521 50.12902711 51.58984375 72.4453125 C54.2806344 95.7654981 49.25627937 121.00189121 35 140 C34.37222656 140.84691406 33.74445313 141.69382813 33.09765625 142.56640625 C28.51232636 148.51371532 23.4043031 153.79751734 18 159 C17.01 159.99 17.01 159.99 16 161 C16.66 161.94875 17.32 162.8975 18 163.875 C20 167 20 167 20 169 C20.76183594 168.83242187 21.52367187 168.66484375 22.30859375 168.4921875 C31.39236867 166.70038171 37.65685889 166.75749973 45.6875 171.5625 C51.21438971 175.50198181 55.82383557 181.17313253 57 188 C57.71508897 197.62619762 56.92810339 204.65436474 50.8125 212.25 C44.66922086 218.6846099 39.56660854 220.40792833 30.625 220.625 C23.1472168 220.57326742 17.66764804 219.17433245 12 214 C5.48853302 207.11995942 3.48427571 200.5235877 3.6015625 191.1171875 C4.23918314 186.12874365 6.41959073 182.24709984 9 178 C9.495 177.01 9.495 177.01 10 176 C9.67201416 175.53102295 9.34402832 175.0620459 9.00610352 174.57885742 C7.52111721 172.45101763 6.04176158 170.31932308 4.5625 168.1875 C4.04623047 167.44951172 3.52996094 166.71152344 2.99804688 165.95117188 C2.50498047 165.23896484 2.01191406 164.52675781 1.50390625 163.79296875 C1.04830322 163.1383667 0.5927002 162.48376465 0.12329102 161.80932617 C-1 160 -1 160 -2 157 C-1.31035156 156.5153125 -0.62070313 156.030625 0.08984375 155.53125 C19.3001147 141.82845042 30.88055142 126.09598334 37 103 C37.1750708 102.40695068 37.3501416 101.81390137 37.53051758 101.20288086 C42.36963936 78.49700677 36.08872128 55.97878342 24.01953125 36.86328125 C16.6213318 26.27543892 7.89876123 18.76792787 -3 12 C-2.43584866 7.6850046 -1.80723554 3.97591818 0 0 Z " fill="#3FA5D1" transform="translate(192,73)"/>
<path d="M0 0 C10.74126605 9.04272247 16.78944835 19.84771743 18.15625 33.74609375 C18.908116 48.26650586 15.4201721 60.61004639 6.34375 71.99609375 C-3.63813265 82.64083579 -16.4496903 88.86099588 -31.09375 89.37109375 C-45.52719219 88.87267272 -58.70895517 83.59809376 -68.65625 72.99609375 C-79.58380652 60.08378271 -82.10868673 47.00329593 -80.94726562 30.52636719 C-79.8919195 21.35052216 -75.55941682 13.93023619 -69.65625 6.99609375 C-69.07875 6.15046875 -68.50125 5.30484375 -67.90625 4.43359375 C-49.95065961 -15.01829584 -20.47983624 -15.4502294 0 0 Z M-56.44140625 16.91796875 C-62.5169383 24.6206089 -65.35685363 32.76017188 -64.40625 42.578125 C-62.84653088 51.64399236 -59.0212522 60.18219763 -51.359375 65.62890625 C-43.42597635 70.60531086 -36.0604163 73.09278953 -26.65625 71.99609375 C-15.98844431 69.38114417 -8.70335495 64.41187537 -2.8828125 55.14453125 C-2.47804688 54.43554688 -2.07328125 53.7265625 -1.65625 52.99609375 C-1.28757812 52.37347656 -0.91890625 51.75085938 -0.5390625 51.109375 C2.46389916 43.92086943 2.15399888 34.21508169 -0.65625 26.99609375 C-5.58328589 16.70266845 -11.97069539 10.86151218 -22.65625 6.99609375 C-34.66502587 3.56501493 -48.04165397 7.87490941 -56.44140625 16.91796875 Z " fill="#3FA5D1" transform="translate(665.65625,68.00390625)"/>
<path d="M0 0 C2 0 2 0 3.3046875 1.29296875 C3.82289063 1.91816406 4.34109375 2.54335938 4.875 3.1875 C8.06346649 6.93708378 11.34110506 10.57971007 14.6875 14.1875 C15.19740479 14.73841309 15.70730957 15.28932617 16.23266602 15.85693359 C17.82085421 17.57214725 19.41024318 19.28624021 21 21 C33.02312123 33.96093934 33.02312123 33.96093934 38.0703125 39.82421875 C39.70557991 41.66803241 41.36848586 43.47265031 43.0546875 45.26953125 C43.60060547 45.85283203 44.14652344 46.43613281 44.70898438 47.03710938 C45.80252592 48.20244263 46.90006561 49.36403951 48.00195312 50.52148438 C50.32352897 52.99803063 51.91317073 54.73951218 53 58 C53.66 58 54.32 58 55 58 C56.65 59.98 58.3 61.96 60 64 C60.33 44.2 60.66 24.4 61 4 C66.61 4 72.22 4 78 4 C78 38.32 78 72.64 78 108 C74.59585597 106.86528532 73.75723352 105.82774013 71.5 103.125 C68.99734679 100.14615469 68.99734679 100.14615469 66.28125 97.3671875 C65 96 65 96 65 94 C64.34 94 63.68 94 63 94 C61.6953125 92.70703125 61.6953125 92.70703125 60.125 90.8125 C56.88077612 86.99377814 53.534789 83.29493493 50.125 79.625 C45.80556636 74.96527976 41.52853991 70.27186091 37.2890625 65.5390625 C33.78257015 61.64960853 30.22838009 57.80436422 26.67578125 53.95703125 C23.72208309 50.69287139 20.86489217 47.3423742 18 44 C17.67 63.8 17.34 83.6 17 104 C11.39 104 5.78 104 0 104 C0 69.68 0 35.36 0 0 Z " fill="#3FA5D1" transform="translate(487,53)"/>
<path d="M0 0 C44.16233766 0 44.16233766 0 54 9 C61.25435561 17.70522674 63.77390748 27.45016495 62.75390625 38.71875 C60.81931958 49.81266294 55.77130564 56.12519288 47 63 C46.34 63.66 45.68 64.32 45 65 C45.44279297 65.57854736 45.88558594 66.15709473 46.34179688 66.75317383 C68.63113809 95.89341428 68.63113809 95.89341428 70 100 C54.06940953 101.91363356 54.06940953 101.91363356 49.26367188 98.91748047 C46.23894629 95.98843497 44.15629004 92.44890093 42.07958984 88.81347656 C40.34392785 85.89794121 38.26744045 83.30551053 36.1875 80.625 C32.28785736 75.50247291 32.28785736 75.50247291 30.6796875 72.6953125 C29.50539247 70.48027563 29.50539247 70.48027563 27 68 C24.51945595 67.66722217 24.51945595 67.66722217 21.83984375 67.828125 C20.93484131 67.85293945 20.02983887 67.87775391 19.09741211 67.90332031 C18.05919312 67.95117676 18.05919312 67.95117676 17 68 C17.00785522 69.40076782 17.00785522 69.40076782 17.01586914 70.82983398 C17.0328762 74.28312796 17.04543302 77.73637767 17.05493164 81.18969727 C17.05997121 82.68644918 17.06680287 84.18319616 17.07543945 85.67993164 C17.08752159 87.82699807 17.09323191 89.97399962 17.09765625 92.12109375 C17.10551147 94.06133423 17.10551147 94.06133423 17.11352539 96.04077148 C17 99 17 99 16 100 C10.72 100 5.44 100 0 100 C0 67 0 34 0 0 Z M16 16 C16 27.55 16 39.1 16 51 C20.4859375 51.0928125 20.4859375 51.0928125 25.0625 51.1875 C25.99070557 51.21481201 26.91891113 51.24212402 27.87524414 51.27026367 C33.3703066 51.32486788 37.1646704 50.67034977 42 48 C46.841113 42.01230761 47.67702892 36.49655662 47 29 C46.01856175 24.60284754 44.74832468 21.72961656 41.5 18.5625 C37.98707757 16.36692348 35.38816008 15.87650853 31.33203125 15.90234375 C30.1251062 15.90609009 30.1251062 15.90609009 28.89379883 15.90991211 C27.87697021 15.91901611 26.8601416 15.92812012 25.8125 15.9375 C22.574375 15.958125 19.33625 15.97875 16 16 Z " fill="#3FA5D1" transform="translate(1172,57)"/>
<path d="M0 0 C17.37427007 -1.77465759 17.37427007 -1.77465759 22.6875 1.81640625 C24.34417709 4.15503447 25.70299414 6.499002 26.96875 9.06787109 C29.14324969 13.14196923 31.90010084 16.87706976 34.5 20.6875 C35.55499073 22.27280861 36.60730754 23.85990174 37.65625 25.44921875 C38.10806641 26.13330811 38.55988281 26.81739746 39.02539062 27.5222168 C39.34701172 28.00988525 39.66863281 28.49755371 40 29 C43.4300281 27.8566573 43.78155019 27.24379382 45.671875 24.31640625 C46.16679443 23.55763184 46.66171387 22.79885742 47.17163086 22.01708984 C47.69249268 21.2070752 48.21335449 20.39706055 48.75 19.5625 C49.2972876 18.7473291 49.8445752 17.9321582 50.40844727 17.09228516 C52.71405686 13.6450098 54.83928717 10.34215018 56.60546875 6.58203125 C58.16397705 3.41474018 58.98958452 1.89544678 62 0 C68.92983647 -1.16846992 76.03485357 -0.60843236 83 0 C81.42176147 3.37888331 79.47597073 6.38397888 77.390625 9.47265625 C76.67712891 10.53371582 75.96363281 11.59477539 75.22851562 12.68798828 C74.49310547 13.78095215 73.75769531 14.87391602 73 16 C71.61810948 18.08091512 70.23787561 20.16293143 68.859375 22.24609375 C67.48958333 24.30989583 66.11979167 26.37369792 64.75 28.4375 C63.70972656 30.01047852 63.70972656 30.01047852 62.6484375 31.61523438 C61.97554687 32.62779297 61.30265625 33.64035156 60.609375 34.68359375 C60.01092773 35.58650146 59.41248047 36.48940918 58.79589844 37.41967773 C57 40 57 40 54.77539062 42.71337891 C52.80951301 44.7679695 52.80951301 44.7679695 52.984375 46.90234375 C54.47202056 49.974904 56.32082466 52.75679835 58.25 55.5625 C58.68892578 56.21017334 59.12785156 56.85784668 59.58007812 57.52514648 C60.53826402 58.93660495 61.4993284 60.34611256 62.46289062 61.75390625 C64.04893759 64.07150982 65.62651226 66.39472012 67.203125 68.71875 C73.52694553 78.03675237 73.52694553 78.03675237 80.05078125 87.21484375 C80.51871094 87.85800537 80.98664063 88.50116699 81.46875 89.16381836 C82.34100766 90.35572422 83.21957455 91.54304791 84.10546875 92.72485352 C87 96.67265904 87 96.67265904 87 100 C70.56947553 102.35411629 70.56947553 102.35411629 65.13427734 98.76953125 C61.78775298 95.37587274 59.49078746 91.31376805 57.21337891 87.15625 C55.59582126 84.28174916 53.75329622 81.59190567 51.88916016 78.87329102 C50.63439738 77.04240879 49.40757509 75.19652131 48.19140625 73.33984375 C47.46824219 72.23769531 46.74507812 71.13554687 46 70 C45.63632324 69.41750488 45.27264648 68.83500977 44.89794922 68.23486328 C43.98186983 66.79035784 42.99660614 65.39017035 42 64 C41.34 64 40.68 64 40 64 C38.51515086 65.80633494 38.51515086 65.80633494 37.0234375 68.171875 C36.43852539 69.05891113 35.85361328 69.94594727 35.25097656 70.85986328 C34.6319043 71.8136084 34.01283203 72.76735352 33.375 73.75 C32.74561523 74.7076123 32.11623047 75.66522461 31.46777344 76.65185547 C30.21322483 78.56079678 28.96122584 80.47141639 27.71191406 82.38378906 C25.57815501 85.64467925 23.41717381 88.88623472 21.25 92.125 C20.65703125 93.01445312 20.0640625 93.90390625 19.453125 94.8203125 C18.30208333 96.546875 17.15104167 98.2734375 16 100 C13.84521484 100.34057617 13.84521484 100.34057617 11.2109375 100.29296875 C10.26992188 100.28330078 9.32890625 100.27363281 8.359375 100.26367188 C7.37453125 100.23853516 6.3896875 100.21339844 5.375 100.1875 C3.88613281 100.16719727 3.88613281 100.16719727 2.3671875 100.14648438 C-0.08908072 100.11105743 -2.54427285 100.06166196 -5 100 C-3.62913491 96.2160048 -1.891981 93.12831843 0.38671875 89.81640625 C1.07137207 88.81633545 1.75602539 87.81626465 2.46142578 86.78588867 C3.19603027 85.72217041 3.93063477 84.65845215 4.6875 83.5625 C5.44577264 82.45395773 6.20341489 81.344984 6.96044922 80.2355957 C10.76756982 74.66368154 14.61161285 69.11994406 18.49609375 63.6015625 C19.1919458 62.60439209 19.88779785 61.60722168 20.60473633 60.57983398 C21.93097724 58.68110575 23.2677583 56.78968763 24.6159668 54.90649414 C25.20933838 54.05434326 25.80270996 53.20219238 26.4140625 52.32421875 C26.9395166 51.58260498 27.4649707 50.84099121 28.00634766 50.0769043 C29.19893781 48.05956934 29.19893781 48.05956934 28.74853516 45.87646484 C27.72409149 43.30833893 26.31336434 41.22014331 24.75 38.9375 C24.03457031 37.88691406 23.31914063 36.83632812 22.58203125 35.75390625 C22.17678223 35.16496582 21.7715332 34.57602539 21.35400391 33.96923828 C19.83760343 31.76381342 18.3306358 29.55209913 16.82421875 27.33984375 C10.79557694 18.44702975 10.79557694 18.44702975 4.609375 9.6640625 C3.97515625 8.78492187 3.3409375 7.90578125 2.6875 7 C2.15511719 6.278125 1.62273438 5.55625 1.07421875 4.8125 C0 3 0 3 0 0 Z " fill="#3FA5D1" transform="translate(690,57)"/>
<path d="M0 0 C2.61040905 2.41862389 3.79925663 4.09273664 4.375 7.625 C5.28121094 7.480625 6.18742187 7.33625 7.12109375 7.1875 C8.33925781 7.001875 9.55742188 6.81625 10.8125 6.625 C12.00746094 6.439375 13.20242187 6.25375 14.43359375 6.0625 C18.77959676 5.58008936 23.00968259 5.53487732 27.375 5.625 C27.70371094 7.52958984 27.70371094 7.52958984 28.0390625 9.47265625 C31.75237899 30.01112396 38.4886896 46.48595088 53.375 61.625 C54.06207031 62.32496094 54.74914062 63.02492188 55.45703125 63.74609375 C71.80436857 79.30487676 93.72148 85.37660097 115.84765625 84.875 C126.62506053 84.41842706 136.53838954 81.49889843 146.44921875 77.41796875 C149.375 76.625 149.375 76.625 151.625 77.3046875 C154.31338349 79.33297683 155.76322166 81.6999208 157.375 84.625 C156.375 87.625 156.375 87.625 153.05078125 89.34375 C130.13368929 99.00613482 105.33413714 101.42265688 81.375 93.625 C79.71404297 93.11646484 79.71404297 93.11646484 78.01953125 92.59765625 C66.55531383 88.6738498 55.32760369 81.81656319 46.375 73.625 C46.375 72.965 46.375 72.305 46.375 71.625 C45.81296875 71.40457031 45.2509375 71.18414062 44.671875 70.95703125 C29.37924232 62.08834461 21.60193661 39.43503226 16.85546875 23.6484375 C16.375 21.625 16.375 21.625 16.375 18.625 C15.385 18.955 14.395 19.285 13.375 19.625 C11.04200175 19.66454234 8.70791811 19.66901732 6.375 19.625 C6.2925 20.32625 6.21 21.0275 6.125 21.75 C4.42934672 28.25000424 0.18563647 32.27609326 -5.38671875 35.7109375 C-10.57727049 37.83063926 -17.48994601 37.55659078 -22.8203125 35.97265625 C-27.78513155 33.37892791 -32.12242915 28.63014169 -34.625 23.625 C-34.80103147 21.21250308 -34.89244968 18.79349105 -34.9375 16.375 C-34.97488281 15.07046875 -35.01226562 13.7659375 -35.05078125 12.421875 C-34.32327028 5.93434598 -30.44774797 1.84882252 -25.53125 -2.109375 C-17.52948027 -7.4220254 -7.21265809 -6.01054841 0 0 Z " fill="#7C636D" transform="translate(35.625,156.375)"/>
<path d="M0 0 C5.61 0 11.22 0 17 0 C17.01458252 2.08908691 17.02916504 4.17817383 17.04418945 6.33056641 C17.09459475 13.24376784 17.16120023 20.15674544 17.23571491 27.06972694 C17.2803848 31.25984386 17.31964823 35.4498643 17.34643555 39.64013672 C17.37250249 43.6862907 17.41292848 47.73207279 17.46318626 51.77799606 C17.47983214 53.3192519 17.49136061 54.86057202 17.49761391 56.40190506 C17.5072802 58.56601925 17.53536736 60.72918693 17.56762695 62.89306641 C17.57873001 64.12328522 17.58983307 65.35350403 17.60127258 66.6210022 C18.17966497 71.52256284 19.78454026 74.81739052 23.3125 78.25 C29.19806926 82.0824637 35.10811856 82.87959448 42 82 C45.15583048 80.92701764 48.03568016 79.50943894 51 78 C51.99 77.67 52.98 77.34 54 77 C55.79561706 72.2152313 56.26372513 67.86000052 56.31884766 62.77954102 C56.33391609 61.75388283 56.33391609 61.75388283 56.34928894 60.70750427 C56.37989909 58.47297927 56.39709344 56.23857281 56.4140625 54.00390625 C56.43279207 52.44448339 56.45236679 50.88507048 56.4727478 49.32566833 C56.52388628 45.24050787 56.5636093 41.15531461 56.60089111 37.07000732 C56.64104599 32.89359548 56.69208571 28.71731789 56.7421875 24.54101562 C56.83873011 16.36076242 56.92219635 8.18045292 57 0 C62.61 0 68.22 0 74 0 C74.06800806 9.21491836 74.12294938 18.4296677 74.15543652 27.64478111 C74.17103542 31.92457849 74.19216697 36.20419398 74.22631836 40.48388672 C74.25911939 44.62065014 74.27689635 48.75723955 74.28463173 52.89412308 C74.29013826 54.46564087 74.30089037 56.03715008 74.31719017 57.60859299 C74.44559341 70.51095564 73.75145539 80.18358931 64.38671875 89.8046875 C55.82457126 97.68018159 45.71474233 100.69407672 34.1171875 100.34765625 C21.34679627 98.92338956 13.06084132 93.58328057 4.54296875 84.41796875 C-1.04929479 75.65439626 -0.39447344 66.11272852 -0.29296875 56.15234375 C-0.28736428 54.52853286 -0.28309821 52.90471685 -0.28010559 51.28089905 C-0.26872373 47.03445097 -0.23931504 42.78831721 -0.20599365 38.54199219 C-0.17514809 34.1979599 -0.16156948 29.85387617 -0.14648438 25.50976562 C-0.11443791 17.00635104 -0.06172557 8.50325099 0 0 Z " fill="#3FA5D1" transform="translate(1076,57)"/>
<path d="M0 0 C20.13 0 40.26 0 61 0 C61 5.28 61 10.56 61 16 C46.48 16 31.96 16 17 16 C17 23.92 17 31.84 17 40 C28.88 40 40.76 40 53 40 C53 44.95 53 49.9 53 55 C41.12 55 29.24 55 17 55 C17 64.57 17 74.14 17 84 C31.52 84 46.04 84 61 84 C61 89.28 61 94.56 61 100 C40.87 100 20.74 100 0 100 C0 67 0 34 0 0 Z " fill="#3FA5D1" transform="translate(911,57)"/>
<path d="M0 0 C0 6.6 0 13.2 0 20 C-1.464375 19.21625 -2.92875 18.4325 -4.4375 17.625 C-14.32418384 12.69562232 -23.55856775 11.74652007 -34.22265625 14.90625 C-42.95993294 18.34709033 -48.02813144 24.70619989 -52 33 C-55.06539936 40.80283473 -55.00510306 48.95487985 -52.03515625 56.7734375 C-48.19916812 65.02443083 -43.09182432 71.36353833 -34.6171875 75.03125 C-24.39926885 78.49060804 -15.70385497 77.59891286 -6 73 C-1.7609403 70.51151495 1.50984897 67.49015103 5 64 C5 71.59 5 79.18 5 87 C-8.81752001 94.6764 -21.65526891 97.32004123 -37.0234375 93.03125 C-50.81927345 88.2515903 -61.29832886 78.91798449 -68 66 C-73.87261784 52.39112914 -73.11405353 38.10459978 -68.0390625 24.40625 C-62.99451202 13.10073261 -53.50472639 3.45087065 -42.015625 -1.2109375 C-27.25906067 -6.38674738 -14.49740244 -5.79896098 0 0 Z " fill="#3FA5D1" transform="translate(1055,62)"/>
<path d="M0 0 C0.33 6.6 0.66 13.2 1 20 C-4 18 -4 18 -6.25 16.5 C-14.92993947 11.76548756 -24.18121989 12.41177116 -33.41015625 15.0703125 C-36.76489446 16.2745775 -39.15841028 17.86880771 -42 20 C-42.99 20.33 -43.98 20.66 -45 21 C-46.02651373 22.71519747 -46.02651373 22.71519747 -47 25 C-49 28.4375 -49 28.4375 -50 30.12109375 C-54.12245136 37.86679338 -54.35462267 47.25704881 -52.34765625 55.765625 C-48.9215266 64.17655272 -42.25258617 71.16238231 -34.01171875 74.90234375 C-25.14921378 78.31826485 -16.51587832 77.96761372 -7.72265625 74.48828125 C-3.54511067 72.20471617 -0.28720692 69.14206355 3.1015625 65.828125 C5 64 5 64 6 64 C6 71.59 6 79.18 6 87 C-8.69723017 94.34861509 -20.66330443 97.20672541 -36.734375 93.09375 C-48.76131132 89.06558951 -59.76756239 80.32202288 -65.97265625 69.1484375 C-66.31167969 68.43945312 -66.65070313 67.73046875 -67 67 C-67.39058594 66.18789062 -67.78117187 65.37578125 -68.18359375 64.5390625 C-72.94122055 52.78492571 -73.06245497 37.38668875 -68.3203125 25.59765625 C-61.36422017 11.9118533 -51.2330461 2.59155383 -37 -3 C-24.75898019 -6.49743423 -11.46925183 -5.73462591 0 0 Z " fill="#3FA5D1" transform="translate(370,62)"/>
<path d="M0 0 C2.92677735 2.09055525 5.69537599 4.22543869 8 7 C8 7.99 8 8.98 8 10 C6.03123367 11.69630313 4.11326838 13.19536118 2 14.6875 C1.14148438 15.31108398 1.14148438 15.31108398 0.265625 15.94726562 C-1.14996532 16.97356861 -2.57419631 17.98793399 -4 19 C-4.50789062 18.6390625 -5.01578125 18.278125 -5.5390625 17.90625 C-9.78987397 15.0405344 -12.69660331 13.1562778 -18 14 C-20.33664149 14.54217768 -20.33664149 14.54217768 -22 16 C-23.09616096 18.31194193 -23.09616096 18.31194193 -23 21 C-20.91165647 25.15580363 -18.1105279 28.12814038 -14.8125 31.375 C-14.32346191 31.85759277 -13.83442383 32.34018555 -13.33056641 32.83740234 C-10.58634931 35.52409245 -7.78467948 38.11928004 -4.875 40.625 C12.11379011 55.2765233 12.11379011 55.2765233 13.47265625 65.5859375 C13.83878049 74.99251425 12.46705418 80.93666483 6.2734375 87.95703125 C0.13229586 93.95917586 -7.48083674 97.11417203 -16.0625 97.4375 C-28.47387946 96.82774919 -36.85378882 90.9608323 -45 82 C-45 81.34 -45 80.68 -45 80 C-43.03062339 78.37643654 -41.06654852 76.86440434 -39 75.375 C-38.42765625 74.95476562 -37.8553125 74.53453125 -37.265625 74.1015625 C-35.84796067 73.06194199 -34.42450738 72.03022409 -33 71 C-29.58749733 72.61949279 -26.95003374 74.63997301 -24 77 C-20.37823579 79.41450947 -17.29333165 79.43661 -13 79 C-10.10592196 77.73348268 -7.2552607 76.2552607 -5 74 C-4.44146068 70.02040732 -4.09642085 67.42974871 -6.28125 63.97265625 C-8.10428917 61.88030447 -10.01153412 59.93564136 -12 58 C-12.97259766 56.99259766 -12.97259766 56.99259766 -13.96484375 55.96484375 C-17.18514247 52.65526942 -20.50439227 49.51675736 -24 46.5 C-33.0093567 38.69662018 -40.31171087 32.11983092 -41.25 19.6875 C-40.82549711 13.42608234 -38.84928525 8.12127933 -34.58984375 3.3828125 C-24.44616052 -5.43994884 -11.64400517 -6.50249639 0 0 Z " fill="#3FA5D1" transform="translate(881,60)"/>
<path d="M0 0 C23.1 0 46.2 0 70 0 C70 5.28 70 10.56 70 16 C61.42 16.33 52.84 16.66 44 17 C44.00523682 19.47878662 44.01047363 21.95757324 44.01586914 24.51147461 C44.03240482 32.68184706 44.04347114 40.85222022 44.05181217 49.02260494 C44.05704103 53.97853922 44.06413874 58.93445642 44.07543945 63.89038086 C44.08626822 68.66898836 44.09227681 73.44757938 44.09487724 78.2261982 C44.09673151 80.05353619 44.10035216 81.88087324 44.10573006 83.70820427 C44.11294036 86.25853329 44.11399095 88.80879337 44.11352539 91.35913086 C44.11712067 92.12229614 44.12071594 92.88546143 44.12442017 93.67175293 C44.11405216 98.88594784 44.11405216 98.88594784 43 100 C37.39 100 31.78 100 26 100 C26 72.28 26 44.56 26 16 C17.42 16 8.84 16 0 16 C0 10.72 0 5.44 0 0 Z " fill="#3FA5D1" transform="translate(1289,57)"/>
<path d="M0 0 C6.34683028 -1.08573021 12.75948816 -2.02597779 19 0 C24.20399117 3.98056135 27.33079663 9.98059092 30.55664062 15.5703125 C32.74696118 19.2574015 35.27213828 22.67447467 37.8125 26.125 C38.63361688 27.27193235 39.45285949 28.42021077 40.26953125 29.5703125 C40.84058594 30.37210938 41.41164063 31.17390625 42 32 C45.92024478 28.42511011 48.7462193 24.27015975 51.75 19.9375 C52.28874756 19.1854126 52.82749512 18.4333252 53.38256836 17.65844727 C55.75481189 14.33346694 58.03655687 11.08001103 59.89453125 7.4375 C61.71786976 4.15805276 62.92278983 2.17376694 66 0 C72.26949493 -1.27709346 78.68622444 -0.63010462 85 0 C84.40147132 3.0952241 83.46654056 5.01279158 81.515625 7.4765625 C80.74037476 8.46958374 80.74037476 8.46958374 79.94946289 9.48266602 C79.10822876 10.54312134 79.10822876 10.54312134 78.25 11.625 C72.8398905 18.56272316 67.6108323 25.60387652 62.49121094 32.75830078 C61.73952637 33.80800049 61.73952637 33.80800049 60.97265625 34.87890625 C60.54218994 35.4829126 60.11172363 36.08691895 59.66821289 36.70922852 C58 39 58 39 56.50701904 40.60299683 C51.31586193 46.54830015 51.13275247 51.68378844 51.1953125 59.375 C51.18160614 60.5400708 51.16789978 61.7051416 51.15377808 62.90551758 C51.11657281 66.60407458 51.1201871 70.30128288 51.125 74 C51.10686684 76.51694798 51.08606222 79.03387823 51.0625 81.55078125 C51.01073663 87.70074591 50.99556356 93.84982949 51 100 C45.39 100 39.78 100 34 100 C34.0220752 98.46255127 34.04415039 96.92510254 34.06689453 95.34106445 C34.13613277 89.58368017 34.13867514 83.82779177 34.12207031 78.07006836 C34.12400535 75.58821884 34.143526 73.10631344 34.18164062 70.62475586 C34.76539109 51.91754817 34.76539109 51.91754817 25.59326172 36.49682617 C24.73748535 35.67287354 23.88170898 34.8489209 23 34 C21.80527616 32.44549254 20.6443576 30.86395476 19.53125 29.25 C19.02746826 28.54560791 18.52368652 27.84121582 18.00463867 27.11547852 C17.50810791 26.41737061 17.01157715 25.7192627 16.5 25 C11.75092711 18.35243223 6.84677928 11.87285879 1.73046875 5.50390625 C0 3 0 3 0 0 Z " fill="#3FA5D1" transform="translate(1369,57)"/>
<path d="M0 0 C2.87811909 -0.19006447 5.74361491 -0.32805204 8.625 -0.4375 C9.83736328 -0.52547852 9.83736328 -0.52547852 11.07421875 -0.61523438 C16.95839119 -0.78267018 16.95839119 -0.78267018 19.6940918 1.27294922 C21.29336815 3.09911253 22.64487138 4.9862191 24 7 C25.0833878 8.45926042 26.16806683 9.91756291 27.25390625 11.375 C28.35999201 12.91435723 29.46282758 14.45605474 30.5625 16 C31.11357422 16.76828125 31.66464844 17.5365625 32.23242188 18.328125 C33.82494613 20.54972468 35.41308999 22.77438775 37 25 C37.96735424 26.35423359 38.9347935 27.70840645 39.90234375 29.0625 C40.59457031 30.031875 41.28679687 31.00125 42 32 C45.92024478 28.42511011 48.7462193 24.27015975 51.75 19.9375 C52.28874756 19.1854126 52.82749512 18.4333252 53.38256836 17.65844727 C55.75481189 14.33346694 58.03655687 11.08001103 59.89453125 7.4375 C61.71786976 4.15805276 62.92278983 2.17376694 66 0 C72.26949493 -1.27709346 78.68622444 -0.63010462 85 0 C84.40147132 3.0952241 83.46654056 5.01279158 81.515625 7.4765625 C80.74037476 8.46958374 80.74037476 8.46958374 79.94946289 9.48266602 C79.10822876 10.54312134 79.10822876 10.54312134 78.25 11.625 C72.8398905 18.56272316 67.6108323 25.60387652 62.49121094 32.75830078 C61.73952637 33.80800049 61.73952637 33.80800049 60.97265625 34.87890625 C60.54218994 35.4829126 60.11172363 36.08691895 59.66821289 36.70922852 C58 39 58 39 56.50701904 40.60299683 C51.31586193 46.54830015 51.13275247 51.68378844 51.1953125 59.375 C51.18160614 60.5400708 51.16789978 61.7051416 51.15377808 62.90551758 C51.11657281 66.60407458 51.1201871 70.30128288 51.125 74 C51.10686684 76.51694798 51.08606222 79.03387823 51.0625 81.55078125 C51.01073663 87.70074591 50.99556356 93.84982949 51 100 C45.39 100 39.78 100 34 100 C34.03778564 98.48349854 34.07557129 96.96699707 34.11450195 95.40454102 C34.23889455 89.69935453 34.27519409 83.996232 34.28686523 78.28979492 C34.30374763 75.835094 34.34353408 73.38042708 34.40795898 70.92651367 C34.79434696 55.51811503 34.05685172 45.02855235 23.31665039 33.44946289 C22.74294708 32.85948517 22.16924377 32.26950745 21.57815552 31.66165161 C19.44843629 29.41925449 17.66765682 26.98363839 15.87890625 24.46484375 C15.31623047 23.69849609 14.75355469 22.93214844 14.17382812 22.14257812 C13.64208984 21.41490234 13.11035156 20.68722656 12.5625 19.9375 C11.4391386 18.40470123 10.31544397 16.87214663 9.19140625 15.33984375 C8.66562988 14.61909668 8.13985352 13.89834961 7.59814453 13.15576172 C6.5036994 11.67944786 5.38892503 10.21805005 4.25732422 8.77001953 C3.70705566 8.06345215 3.15678711 7.35688477 2.58984375 6.62890625 C2.09218506 6.00185791 1.59452637 5.37480957 1.08178711 4.72875977 C0 3 0 3 0 0 Z " fill="#3FA5D1" transform="translate(386,57)"/>
<path d="M0 0 C5.28 0 10.56 0 16 0 C17.93224465 1.93224465 17.12018438 4.83610389 17.12442017 7.40708923 C17.12082489 8.32921707 17.11722961 9.25134491 17.11352539 10.20141602 C17.11367142 11.16716553 17.11381744 12.13291504 17.1139679 13.12792969 C17.11326834 16.33661099 17.10547397 19.54523503 17.09765625 22.75390625 C17.09579222 24.97208118 17.09436825 27.19025652 17.09336853 29.40843201 C17.08954216 35.25940071 17.07971086 41.11034477 17.06866455 46.96130371 C17.05845299 52.92667304 17.05387146 58.89204633 17.04882812 64.85742188 C17.03808869 76.57162544 17.02101085 88.28581067 17 100 C11.39 100 5.78 100 0 100 C0 67 0 34 0 0 Z " fill="#3FA5D1" transform="translate(1256,57)"/>
<path d="M0 0 C4.77272727 4.31818182 4.77272727 4.31818182 6 8 C6.66 8 7.32 8 8 8 C8 8.66 8 9.32 8 10 C7.22398437 10.20753906 6.44796875 10.41507813 5.6484375 10.62890625 C-16.19019915 16.85734797 -34.48828182 28.9980599 -45.8125 49 C-53.32694636 62.77383046 -56.9383933 76.28822087 -58 92 C-64.435 92.495 -64.435 92.495 -71 93 C-69.11247722 63.92651476 -60.13654929 39.95793936 -38.8203125 19.41015625 C-29.55407997 11.49150602 -19.24442018 5.63558269 -8 1 C-7.11570313 0.5978125 -6.23140625 0.195625 -5.3203125 -0.21875 C-3 -1 -3 -1 0 0 Z " fill="#5C85A1" transform="translate(121,66)"/>
<path d="M0 0 C4.62841646 2.78985577 6.794308 7.04459369 8.5 12.01171875 C9.6533356 17.28681111 8.74767709 21.70629668 6.2890625 26.44140625 C3.02383107 30.32438417 -0.10877935 33.55318687 -5.0234375 35.19140625 C-11.24017979 35.69889542 -16.79133163 35.96338955 -22.0234375 32.19140625 C-26.70208229 27.62549989 -29.6364034 23.54570177 -30.3984375 16.94140625 C-29.82569023 11.21393351 -28.30651042 6.39179243 -24.08203125 2.3203125 C-16.17362763 -3.75299194 -8.92189453 -4.3996284 0 0 Z M-18.0234375 7.19140625 C-21.05622864 10.30616472 -22.91838958 12.7793937 -23.0234375 17.19140625 C-21.76426445 21.41333942 -20.5826425 23.69574727 -17.2734375 26.62890625 C-13.41840878 28.48228544 -11.25333568 28.79567742 -7.0234375 28.19140625 C-3.94149772 26.56321165 -1.75923083 25.16131563 0.3515625 22.37890625 C1.57531266 18.09578068 1.57551902 14.5091106 -0.2734375 10.44140625 C-2.87091881 7.10178742 -4.82692047 5.55556361 -8.8984375 4.31640625 C-12.86201505 4.15786315 -14.71537469 5.03397398 -18.0234375 7.19140625 Z " fill="#000000" transform="translate(492.0234375,204.80859375)"/>
<path d="M0 0 C4.14209674 2.93789955 7.28721191 6.52179198 8.89453125 11.34375 C9.59270521 18.53150819 9.31112003 23.53244898 4.89453125 29.34375 C0.71172409 33.62162096 -3.16049914 35.92142975 -9.10546875 36.34375 C-14.94835961 35.8576691 -19.56894637 34.14176874 -24.10546875 30.34375 C-28.54074403 24.58987936 -29.58642852 20.5581466 -29.10546875 13.34375 C-27.72357613 6.78926849 -24.5925499 3.05883389 -19.10546875 -0.65625 C-12.73730491 -4.24854755 -6.16828602 -3.40654849 0 0 Z M-18.10546875 7.34375 C-21.52124453 11.07445546 -21.66548233 13.9615727 -21.53515625 18.86328125 C-20.83804132 22.88753559 -19.06613096 24.59456366 -16.10546875 27.34375 C-12.88815324 28.95240775 -9.59470755 28.81071133 -6.10546875 28.34375 C-2.6275214 26.60477632 -0.68290429 25.34113866 1.26953125 21.96875 C2.38158971 17.29810448 2.48793152 14.50772746 0.26953125 10.15625 C-2.34851388 7.0559334 -4.32612229 5.76100492 -8.10546875 4.34375 C-12.52055522 4.34375 -14.36283523 5.11409599 -18.10546875 7.34375 Z " fill="#000000" transform="translate(1178.10546875,204.65625)"/>
<path d="M0 0 C4.33282545 3.01534962 7.50687491 7.11991444 8.82421875 12.26953125 C9.51768067 17.81722662 9.04762722 22.49112328 6.29296875 27.41015625 C2.44250983 32.2846734 -3.01484501 35.53562662 -9.17578125 36.26953125 C-15.72626428 35.68853189 -21.14937938 33.58416187 -25.65234375 28.65234375 C-29.34492609 23.68076641 -29.87813346 19.14946393 -29.59375 13.0390625 C-28.80400172 7.80605751 -26.02409427 4.91404577 -22.23828125 1.51953125 C-14.97801427 -3.81454245 -7.85251678 -4.36593762 0 0 Z M-18.17578125 7.26953125 C-20.96523524 10.49942534 -22.07097151 12.53586305 -22.67578125 16.76953125 C-21.99588113 21.52883211 -20.22873652 24.65649497 -16.42578125 27.64453125 C-12.28262841 28.79540704 -8.26876563 29.38028173 -4.39453125 27.32421875 C-1.12526948 24.77611766 0.93595072 22.31608559 1.82421875 18.26953125 C1.55068221 13.89294661 0.59721572 10.68956084 -2.17578125 7.26953125 C-8.61319752 3.93586925 -11.93824874 3.45063379 -18.17578125 7.26953125 Z " fill="#000000" transform="translate(939.17578125,204.73046875)"/>
<path d="M0 0 C16 0 16 0 22 4 C25.26644769 7.26644769 24.9435818 11.52885798 25 16 C24.08651145 19.57783015 22.78426342 21.59540886 20 24 C21.36388686 28.09166058 23.4064136 31.02995722 26.07421875 34.3515625 C26.53248047 35.16753906 26.53248047 35.16753906 27 36 C26.67 36.99 26.34 37.98 26 39 C23.01435557 39.18660278 21.6770081 39.22276874 19 38 C16.66220183 35.29105504 14.73417301 32.47543651 12.796875 29.46875 C11.17263697 26.73480565 11.17263697 26.73480565 8 26 C8 29.96 8 33.92 8 38 C5.36 38 2.72 38 0 38 C0 25.46 0 12.92 0 0 Z M8 7 C8 10.96 8 14.92 8 19 C9.918125 19.0928125 9.918125 19.0928125 11.875 19.1875 C12.59429688 19.22230469 13.31359375 19.25710937 14.0546875 19.29296875 C14.69664062 19.19628906 15.33859375 19.09960938 16 19 C18.31282587 15.53076119 18.42478586 14.07794425 18 10 C17.06402685 7.98048938 17.06402685 7.98048938 15 7 C11.37464024 6.7496423 11.37464024 6.7496423 8 7 Z " fill="#000000" transform="translate(552,202)"/>
<path d="M0 0 C17.08571429 0 17.08571429 0 22 4 C25.10605157 8.65907735 24.61773396 13.54335002 24 19 C22.125 22.25 22.125 22.25 20 24 C19.34 24 18.68 24 18 24 C18.56589844 24.74765625 19.13179687 25.4953125 19.71484375 26.265625 C20.44832031 27.25046875 21.18179688 28.2353125 21.9375 29.25 C23.03384766 30.71179688 23.03384766 30.71179688 24.15234375 32.203125 C25.75345079 34.6267881 26.57636238 36.1757492 27 39 C23.70473074 39.17974196 22.01404443 39.20860198 19 38 C16.37253624 35.3176214 14.18951921 32.50277329 11.98046875 29.46875 C10.1706262 26.75569874 10.1706262 26.75569874 7 26 C7 29.96 7 33.92 7 38 C5 39 5 39 0 38 C0 25.46 0 12.92 0 0 Z M7 7 C7 10.96 7 14.92 7 19 C11.0100934 19.17864631 11.0100934 19.17864631 15 19 C17.15705515 17.2435669 17.15705515 17.2435669 17.265625 15.125 C17.26046875 14.42375 17.2553125 13.7225 17.25 13 C17.25515625 12.29875 17.2603125 11.5975 17.265625 10.875 C17.15705515 8.7564331 17.15705515 8.7564331 15 7 C12.31160615 6.73008094 9.70858064 6.91262643 7 7 Z " fill="#000000" transform="translate(1000,202)"/>
<path d="M0 0 C17.22222222 0 17.22222222 0 22 4 C24.76758973 8.41496457 24.53938359 12.94940816 24 18 C22.6875 21.0625 22.6875 21.0625 21 23 C20.01 23.33 19.02 23.66 18 24 C18.56589844 24.74765625 19.13179687 25.4953125 19.71484375 26.265625 C20.44832031 27.25046875 21.18179687 28.2353125 21.9375 29.25 C23.03384766 30.71179688 23.03384766 30.71179688 24.15234375 32.203125 C25.75345079 34.6267881 26.57636238 36.1757492 27 39 C23.70473074 39.17974196 22.01404443 39.20860198 19 38 C16.37253624 35.3176214 14.18951921 32.50277329 11.98046875 29.46875 C10.1706262 26.75569874 10.1706262 26.75569874 7 26 C7 29.96 7 33.92 7 38 C4.69 38 2.38 38 0 38 C0 25.46 0 12.92 0 0 Z M7 7 C7 10.96 7 14.92 7 19 C11.0100934 19.17864631 11.0100934 19.17864631 15 19 C17.15705515 17.2435669 17.15705515 17.2435669 17.265625 15.125 C17.26046875 14.42375 17.2553125 13.7225 17.25 13 C17.25515625 12.29875 17.2603125 11.5975 17.265625 10.875 C17.15705515 8.7564331 17.15705515 8.7564331 15 7 C12.31160615 6.73008094 9.70858064 6.91262643 7 7 Z " fill="#000000" transform="translate(1199,202)"/>
<path d="M0 0 C15 0 15 0 21 4 C23.76055304 6.90645964 24.43128699 8.88624618 24.4375 12.875 C24.29921781 17.79493465 23.26785189 20.34769494 20 24 C19.34 24 18.68 24 18 24 C18.75796875 25.04800781 18.75796875 25.04800781 19.53125 26.1171875 C20.50578125 27.48230469 20.50578125 27.48230469 21.5 28.875 C22.1496875 29.77992188 22.799375 30.68484375 23.46875 31.6171875 C25 34 25 34 25 36 C25.66 36 26.32 36 27 36 C27 36.99 27 37.98 27 39 C20.66956522 39.48695652 20.66956522 39.48695652 17.9375 37.5 C16.78317944 36.01055411 15.64240118 34.51020374 14.53125 32.98828125 C14.0053125 32.27027344 13.479375 31.55226562 12.9375 30.8125 C12.45152344 30.11769531 11.96554687 29.42289063 11.46484375 28.70703125 C10.01243541 26.7185834 10.01243541 26.7185834 7 26 C7 29.96 7 33.92 7 38 C5 39 5 39 0 38 C0 25.46 0 12.92 0 0 Z M7 7 C7 10.96 7 14.92 7 19 C11.0100934 19.17864631 11.0100934 19.17864631 15 19 C17.15705515 17.2435669 17.15705515 17.2435669 17.265625 15.125 C17.26046875 14.42375 17.2553125 13.7225 17.25 13 C17.25515625 12.29875 17.2603125 11.5975 17.265625 10.875 C17.15705515 8.7564331 17.15705515 8.7564331 15 7 C12.31160615 6.73008094 9.70858064 6.91262643 7 7 Z " fill="#000000" transform="translate(1094,202)"/>
<path d="M0 0 C4.77272727 4.31818182 4.77272727 4.31818182 6 8 C6.66 8 7.32 8 8 8 C8 8.66 8 9.32 8 10 C7.22398437 10.20753906 6.44796875 10.41507813 5.6484375 10.62890625 C-9.02871502 14.81487218 -20.34699014 21.43074706 -32 31 C-33.66556069 32.33471462 -35.33184128 33.66853387 -37 35 C-39.64 32.69 -42.28 30.38 -45 28 C-38.24547209 14.49094417 -21.37658351 6.51458039 -8 1 C-7.11570313 0.5978125 -6.23140625 0.195625 -5.3203125 -0.21875 C-3 -1 -3 -1 0 0 Z " fill="#4A99BE" transform="translate(121,66)"/>
<path d="M0 0 C17.22222222 0 17.22222222 0 22 4 C24.9302351 8.6103699 24.65541569 13.72546422 24 19 C22.125 22.1875 22.125 22.1875 20 24 C19.34 24 18.68 24 18 24 C18.66128906 24.83144531 19.32257812 25.66289062 20.00390625 26.51953125 C20.8573118 27.61676696 21.71014701 28.71444644 22.5625 29.8125 C23.21895508 30.63331055 23.21895508 30.63331055 23.88867188 31.47070312 C25.00588139 32.9221958 26.01128867 34.45810571 27 36 C26.67 36.99 26.34 37.98 26 39 C23.09054663 39.12122722 21.64181478 39.1110436 19 38 C15.92256022 34.95467264 13.33478591 31.64469178 11 28 C11 27.34 11 26.68 11 26 C9.68 26 8.36 26 7 26 C7 29.96 7 33.92 7 38 C4.69 38 2.38 38 0 38 C0 25.46 0 12.92 0 0 Z M7 7 C7 10.96 7 14.92 7 19 C12.43401467 19.59662613 12.43401467 19.59662613 17.0625 17.375 C18.31856608 14.19296594 17.92070253 12.25787048 17 9 C15.23863645 6.81668311 15.23863645 6.81668311 13.0546875 6.8046875 C10.02734375 6.90234375 10.02734375 6.90234375 7 7 Z " fill="#000000" transform="translate(757,202)"/>
<path d="M0 0 C2.31 0 4.62 0 7 0 C7.01458252 0.80219971 7.02916504 1.60439941 7.04418945 2.4309082 C7.11856719 6.05859699 7.21526243 9.68535504 7.3125 13.3125 C7.33505859 14.57513672 7.35761719 15.83777344 7.38085938 17.13867188 C7.41630859 18.34716797 7.45175781 19.55566406 7.48828125 20.80078125 C7.51446533 21.91622314 7.54064941 23.03166504 7.56762695 24.1809082 C7.78479586 26.98654929 7.78479586 26.98654929 9.30932617 28.86791992 C12.12308073 30.7520181 14.73190973 30.29709912 18 30 C20.75439516 27.24560484 20.30989276 25.53396797 20.4140625 21.6796875 C20.45273437 20.42285156 20.49140625 19.16601562 20.53125 17.87109375 C20.5621875 16.55238281 20.593125 15.23367187 20.625 13.875 C20.66318029 12.53513082 20.70223206 11.19528617 20.7421875 9.85546875 C20.8367203 6.57045381 20.92227156 3.28544862 21 0 C23.64 0 26.28 0 29 0 C29.09941096 4.0200263 29.17172063 8.03956963 29.21972656 12.06054688 C29.23975319 13.42623368 29.26698332 14.79183569 29.30175781 16.15722656 C29.35066432 18.12787102 29.37091347 20.09915983 29.390625 22.0703125 C29.41157227 23.25383301 29.43251953 24.43735352 29.45410156 25.65673828 C28.90413997 29.7057566 27.52133887 31.82431642 25 35 C21.78888831 37.38774972 19.00195941 38.72079353 15 39 C8.80235951 38.01624754 5.43598714 36.43598714 1 32 C-0.13917218 28.58248347 -0.11338481 25.96512063 -0.09765625 22.36328125 C-0.09443359 21.06455078 -0.09121094 19.76582031 -0.08789062 18.42773438 C-0.07953531 17.05598892 -0.07107037 15.68424413 -0.0625 14.3125 C-0.05748335 12.92903805 -0.05292073 11.54557437 -0.04882812 10.16210938 C-0.03702529 6.77469605 -0.02056019 3.38736967 0 0 Z " fill="#000000" transform="translate(716,202)"/>
<path d="M0 0 C2.64 0 5.28 0 8 0 C8.01981934 0.83772949 8.03963867 1.67545898 8.06005859 2.53857422 C8.13810612 5.64365834 8.22479635 8.74834539 8.31738281 11.85302734 C8.37454036 13.85886971 8.42168596 15.86498918 8.46875 17.87109375 C8.50742187 19.12792969 8.54609375 20.38476562 8.5859375 21.6796875 C8.6173584 22.84226074 8.6487793 24.00483398 8.68115234 25.20263672 C8.72157869 28.13656482 8.72157869 28.13656482 11 30 C15.57250477 30.52455861 15.57250477 30.52455861 19.69067383 28.86791992 C21.57325329 26.18218145 21.43523254 24.05909378 21.51171875 20.80078125 C21.54716797 19.59228516 21.58261719 18.38378906 21.61914062 17.13867188 C21.64169922 15.87603516 21.66425781 14.61339844 21.6875 13.3125 C21.72166016 12.03826172 21.75582031 10.76402344 21.79101562 9.45117188 C21.87360784 6.30086897 21.94272335 3.15084843 22 0 C24.31 0 26.62 0 29 0 C29.12422509 4.16249607 29.21462647 8.3239917 29.2746582 12.48779297 C29.29969925 13.90204682 29.33374342 15.31617257 29.37719727 16.72998047 C29.77464654 30.00011026 29.77464654 30.00011026 26.73046875 33.8359375 C21.59403956 37.90686994 18.21133643 38.45150851 11.6953125 38.3125 C7.84597468 37.86619996 5.79425376 36.65454107 3 34 C0.35587318 29.59456706 -0.36330746 26.40034211 -0.29296875 21.2890625 C-0.28330078 20.04511719 -0.27363281 18.80117187 -0.26367188 17.51953125 C-0.23853516 16.23433594 -0.21339844 14.94914063 -0.1875 13.625 C-0.17396484 12.31660156 -0.16042969 11.00820312 -0.14648438 9.66015625 C-0.1112237 6.43968156 -0.06193633 3.22005394 0 0 Z " fill="#000000" transform="translate(511,202)"/>
<path d="M0 0 C2.31 0 4.62 0 7 0 C7.01458252 0.83772949 7.02916504 1.67545898 7.04418945 2.53857422 C7.10520707 5.64378902 7.17935065 8.74833117 7.26245117 11.85302734 C7.31209959 13.85882336 7.34654164 15.86497687 7.38085938 17.87109375 C7.41630859 19.12792969 7.45175781 20.38476562 7.48828125 21.6796875 C7.51446533 22.84226074 7.54064941 24.00483398 7.56762695 25.20263672 C7.71031006 26.1257666 7.85299316 27.04889648 8 28 C11.46998729 30.31332486 12.92509248 30.33957563 17 30 C17.99 29.34 18.98 28.68 20 28 C20.51146198 25.09386566 20.51146198 25.09386566 20.51171875 21.6796875 C20.54716797 20.42285156 20.58261719 19.16601562 20.61914062 17.87109375 C20.64169922 16.55238281 20.66425781 15.23367187 20.6875 13.875 C20.72066529 12.53512241 20.75515422 11.19527689 20.79101562 9.85546875 C20.87373327 6.5703967 20.94280693 3.28559968 21 0 C23.64 0 26.28 0 29 0 C29.08755672 4.35403865 29.14057969 8.70784877 29.1875 13.0625 C29.21263672 14.29162109 29.23777344 15.52074219 29.26367188 16.78710938 C29.31615977 23.27811199 29.34456807 28.34362835 26 34 C22.34312916 37.56544907 19.39274589 38.27743822 14.4375 38.4375 C8.70923338 38.20464363 5.888052 36.94916181 1.89550781 32.82739258 C-0.48779301 29.27239427 -0.46297172 27.19958847 -0.390625 22.94921875 C-0.38496521 22.29041214 -0.37930542 21.63160553 -0.37347412 20.95283508 C-0.35121239 18.86362784 -0.3010433 16.77618227 -0.25 14.6875 C-0.22992144 13.26499886 -0.21167304 11.84247063 -0.1953125 10.41992188 C-0.15138359 6.9460492 -0.08243096 3.47319675 0 0 Z " fill="#000000" transform="translate(959,202)"/>
<path d="M0 0 C16 0 16 0 22 4 C24.90943003 7.49131603 25.4824812 10.46075939 25.28515625 15.0078125 C24.67929482 19.24054304 23.10229407 22.05980799 19.875 24.8125 C15.90006294 26.45432183 12.28631774 26.68012554 8 27 C8 30.63 8 34.26 8 38 C5.36 38 2.72 38 0 38 C0 25.46 0 12.92 0 0 Z M7 7 C7.33 10.96 7.66 14.92 8 19 C12.0100934 19.17864631 12.0100934 19.17864631 16 19 C18.36410488 17.06268472 18.36410488 17.06268472 18.3125 13.5625 C18.24161047 10.16764372 18.24161047 10.16764372 17 8.0625 C13.73357754 6.32721307 10.65648548 6.82017285 7 7 Z " fill="#000000" transform="translate(1059,202)"/>
<path d="M0 0 C7.59 0 15.18 0 23 0 C23 2.31 23 4.62 23 7 C17.72 7 12.44 7 7 7 C7 9.64 7 12.28 7 15 C11.29 15 15.58 15 20 15 C20 17.31 20 19.62 20 22 C15.71 22 11.42 22 7 22 C7 25.3 7 28.6 7 32 C12.28 32 17.56 32 23 32 C23 33.98 23 35.96 23 38 C15.41 38 7.82 38 0 38 C0 25.46 0 12.92 0 0 Z " fill="#000000" transform="translate(644,202)"/>
<path d="M0 0 C0 2.64 0 5.28 0 8 C-0.53625 7.855625 -1.0725 7.71125 -1.625 7.5625 C-2.40875 7.376875 -3.1925 7.19125 -4 7 C-5.3921875 6.62875 -5.3921875 6.62875 -6.8125 6.25 C-11.02971678 5.9192379 -13.34099918 6.92886746 -17 9 C-19.27042717 11.70986468 -19.91835776 13.45183064 -20.4375 16.9375 C-19.8806713 20.83530088 -18.43417323 22.93989651 -16 26 C-12.28475712 28.47682859 -9.30361706 28.43538538 -5 28 C-2.11785113 27.11785113 -2.11785113 27.11785113 0 26 C0 25.34 0 24.68 0 24 C0.66 24 1.32 24 2 24 C2 27.3 2 30.6 2 34 C-5.07530988 36.59095855 -9.86588033 37.75761164 -17 35 C-22.40063184 32.29968408 -25.8071077 28.59887397 -28 23 C-28.85843101 17.80462624 -28.82731407 12.87441838 -26.375 8.125 C-19.71507449 -0.63805988 -10.49742529 -5.24871264 0 0 Z " fill="#000000" transform="translate(704,204)"/>
<path d="M0 0 C3 1.5 3 1.5 5 3 C4.8125 4.875 4.8125 4.875 4 7 C1.10894403 8.68644932 -0.48102512 9.06919665 -3.8125 8.625 C-4.534375 8.41875 -5.25625 8.2125 -6 8 C-4.42369323 11.87321093 -1.92252331 14.24735163 1.0625 17.125 C6.87679671 22.74743326 6.87679671 22.74743326 7.375 27.8125 C7.34874901 31.4220118 7.05911955 31.92687846 4.625 34.9375 C0.666732 38.04756771 -1.74773976 38.32462727 -6.66796875 38.30078125 C-10.28738627 37.83395521 -12.21037 36.28892718 -15 34 C-14.8125 32.125 -14.8125 32.125 -14 30 C-11.4375 28.75 -11.4375 28.75 -9 28 C-8.34 28.66 -7.68 29.32 -7 30 C-4.41645782 30.16687448 -4.41645782 30.16687448 -2 30 C-1.67 28.68 -1.34 27.36 -1 26 C-1.77085937 25.31292969 -2.54171875 24.62585938 -3.3359375 23.91796875 C-4.34911418 23.00798599 -5.36212643 22.09782013 -6.375 21.1875 C-6.88289062 20.73568359 -7.39078125 20.28386719 -7.9140625 19.81835938 C-13.8354044 14.48136043 -13.8354044 14.48136043 -14.375 9.625 C-13.94171326 5.4365615 -12.93759961 3.93759961 -10 1 C-6.81558048 -0.59220976 -3.4662845 -0.3976617 0 0 Z " fill="#060606" transform="translate(626,202)"/>
<path d="M0 0 C4.84455959 -0.96891192 4.84455959 -0.96891192 8 0 C11.459238 3.3419757 14.24277915 7.06840731 17 11 C17.4846875 10.2059375 17.969375 9.411875 18.46875 8.59375 C23.87852238 0.35425053 23.87852238 0.35425053 27.3125 -0.73046875 C29.5 -0.6875 29.5 -0.6875 33 0 C32.27593618 3.81998986 30.54118888 5.80403272 27.99926758 8.72241211 C20.90502721 17.08090666 19.82890979 23.58459547 20.61328125 34.37109375 C20.74089844 35.56863281 20.86851563 36.76617187 21 38 C17.71023192 39.09658936 16.28696233 38.79953138 13 38 C13.06703125 36.741875 13.1340625 35.48375 13.203125 34.1875 C13.46028209 21.52344493 10.92749203 14.51521229 2.58984375 4.9921875 C0 2 0 2 0 0 Z " fill="#000000" transform="translate(1288,202)"/>
<path d="M0 0 C3.125 -0.4375 3.125 -0.4375 7 0 C10.34247172 2.80677083 12.59612701 6.39419051 15 10 C18.47482085 8.84172638 19.05553362 7.911812 21.125 5 C23.98734177 1.01265823 23.98734177 1.01265823 25 0 C27.33297433 -0.04092937 29.66705225 -0.04241723 32 0 C31.57938242 3.64535234 29.73629882 5.60104965 27.40576172 8.31591797 C19.70996045 17.53537562 19.60148795 26.34938293 20 38 C17.36 38 14.72 38 12 38 C12.08314453 36.09541016 12.08314453 36.09541016 12.16796875 34.15234375 C12.33719048 22.0145305 10.36606009 15.0547664 2.37109375 5.87109375 C0 3 0 3 0 0 Z " fill="#000000" transform="translate(847,202)"/>
<path d="M0 0 C9.24 0 18.48 0 28 0 C28 2.31 28 4.62 28 7 C24.7 7 21.4 7 18 7 C18 17.23 18 27.46 18 38 C15.36 38 12.72 38 10 38 C10 27.77 10 17.54 10 7 C6.7 7 3.4 7 0 7 C0 4.69 0 2.38 0 0 Z " fill="#000000" transform="translate(811,202)"/>
<path d="M0 0 C9.24 0 18.48 0 28 0 C28 2.31 28 4.62 28 7 C24.7 7.33 21.4 7.66 18 8 C18 17.9 18 27.8 18 38 C15.36 38 12.72 38 10 38 C10 27.77 10 17.54 10 7 C6.7 7 3.4 7 0 7 C0 4.69 0 2.38 0 0 Z " fill="#000000" transform="translate(1253,202)"/>
<path d="M0 0 C4.93264249 -0.96891192 4.93264249 -0.96891192 8 0 C11.16868598 3.35602384 13.59997847 7.06804984 16 11 C16.556875 10.2059375 17.11375 9.411875 17.6875 8.59375 C23.84631778 0.35425053 23.84631778 0.35425053 27.37890625 -0.73046875 C29.5625 -0.6875 29.5625 -0.6875 33 0 C31.86451135 2.69921874 30.57566698 4.49705565 28.65234375 6.75 C20.22795829 16.63547537 19.56473006 25.27475528 20 38 C17.69 38 15.38 38 13 38 C13.04382813 36.79085937 13.08765625 35.58171875 13.1328125 34.3359375 C13.23832563 21.62095372 10.51558809 14.39406805 2 5 C1.34 4.34 0.68 3.68 0 3 C0 2.01 0 1.02 0 0 Z " fill="#000000" transform="translate(426,202)"/>
<path d="M0 0 C2.31 0 4.62 0 7 0 C7 12.54 7 25.08 7 38 C1 39 1 39 -1 38 C-1.02464928 32.74894558 -1.04283568 27.49792455 -1.05493164 22.24682617 C-1.05997218 20.45905979 -1.06680454 18.67129755 -1.07543945 16.88354492 C-1.0875173 14.31948832 -1.09323094 11.75548603 -1.09765625 9.19140625 C-1.10281754 8.3872377 -1.10797882 7.58306915 -1.11329651 6.75453186 C-1.11349215 4.83598285 -1.06201983 2.91754632 -1 1 C-0.67 0.67 -0.34 0.34 0 0 Z " fill="#000000" transform="translate(1236,202)"/>
<path d="M0 0 C2.64 0 5.28 0 8 0 C8 12.54 8 25.08 8 38 C5.36 38 2.72 38 0 38 C0 25.46 0 12.92 0 0 Z " fill="#000000" transform="translate(1130,202)"/>
<path d="M0 0 C2.31 0 4.62 0 7 0 C7 12.54 7 25.08 7 38 C4.03 38.495 4.03 38.495 1 39 C0 38 0 38 -0.11352539 34.39819336 C-0.11336625 32.79540144 -0.10767063 31.1926044 -0.09765625 29.58984375 C-0.0962413 28.74780899 -0.09482635 27.90577423 -0.09336853 27.03822327 C-0.08775263 24.33794665 -0.07519748 21.63775172 -0.0625 18.9375 C-0.05748705 17.11132932 -0.05292379 15.28515734 -0.04882812 13.45898438 C-0.03777804 8.97262458 -0.02050279 4.48632616 0 0 Z " fill="#000000" transform="translate(794,202)"/>
</svg>
